# Simple cube OBJ file - Fixed for Vulkan (counter-clockwise winding)
# Vertices
v -1.0 -1.0  1.0
v  1.0 -1.0  1.0
v  1.0  1.0  1.0
v -1.0  1.0  1.0
v -1.0 -1.0 -1.0
v  1.0 -1.0 -1.0
v  1.0  1.0 -1.0
v -1.0  1.0 -1.0

# Normals
vn  0.0  0.0  1.0
vn  0.0  0.0 -1.0
vn -1.0  0.0  0.0
vn  1.0  0.0  0.0
vn  0.0  1.0  0.0
vn  0.0 -1.0  0.0

# Faces (counter-clockwise when viewed from outside)
# Front face (+Z)
f 1//1 2//1 3//1
f 1//1 3//1 4//1

# Back face (-Z)
f 6//2 5//2 8//2
f 6//2 8//2 7//2

# Left face (-X)
f 5//3 1//3 4//3
f 5//3 4//3 8//3

# Right face (+X)
f 2//4 6//4 7//4
f 2//4 7//4 3//4

# Top face (+Y)
f 4//5 3//5 7//5
f 4//5 7//5 8//5

# Bottom face (-Y)
f 5//6 6//6 2//6
f 5//6 2//6 1//6